HIERARCHY
ROOT Hips
{
	OFFSET 0.000000 0.000000 0.000000
	CHANNELS 6 Xposition Yposition Zposition Zrotation Yrotation Xrotation 
	JOINT LeftUpLeg_virtual
	{
		OFFSET 0.000000 0.000000 0.000000
		CHANNELS 3 Zrotation Yrotation Xrotation
		JOINT LeftUpLeg
		{
			OFFSET 10.205400 -3.823500 0.155100
			CHANNELS 3 Zrotation Yrotation Xrotation
			JOINT LeftLeg
			{
				OFFSET 0.708757 -12.982077 0.567790
				CHANNELS 3 Zrotation Yrotation Xrotation
				JOINT LeftFoot
				{
					OFFSET -0.708756 -10.717838 -2.184338
					CHANNELS 3 Zrotation Yrotation Xrotation
					JOINT LeftToeBase
					{
						OFFSET 0.108149 -7.191104 7.560241
						CHANNELS 3 Zrotation Yrotation Xrotation
						End Site
						{
							OFFSET 0.000000 0.000000 0.000000
						}
					}
				}
			}
		}
	}
	JOINT RightUpLeg_virtual
	{
		OFFSET 0.000000 0.000000 0.000000
		CHANNELS 3 Zrotation Yrotation Xrotation
		JOINT RightUpLeg
		{
			OFFSET -10.205400 -3.823500 0.005500
			CHANNELS 3 Zrotation Yrotation Xrotation
			JOINT RightLeg
			{
				OFFSET -0.708756 -12.982134 0.610632
				CHANNELS 3 Zrotation Yrotation Xrotation
				JOINT RightFoot
				{
					OFFSET 0.708754 -10.717769 -1.945823
					CHANNELS 3 Zrotation Yrotation Xrotation
					JOINT RightToeBase
					{
						OFFSET -0.108140 -7.191069 7.372968
						CHANNELS 3 Zrotation Yrotation Xrotation
						End Site
						{
							OFFSET 0.000000 0.000000 0.000000
						}
					}
				}
			}
		}
	}
	JOINT Spine_virtual
	{
		OFFSET 0.000000 0.000000 0.000000
		CHANNELS 3 Zrotation Yrotation Xrotation
		JOINT Spine
		{
			OFFSET 0.000000 6.876099 0.125700
			CHANNELS 3 Zrotation Yrotation Xrotation
			JOINT Spine1
			{
				OFFSET 0.000000 8.022060 0.146608
				CHANNELS 3 Zrotation Yrotation Xrotation
				JOINT Spine2
				{
					OFFSET 0.000000 9.168068 0.167552
					CHANNELS 3 Zrotation Yrotation Xrotation
					JOINT Neck_virtual
					{
						OFFSET 0.000000 0.000000 0.000000
						CHANNELS 3 Zrotation Yrotation Xrotation
						JOINT Neck
						{
							OFFSET 0.000000 10.314075 0.188496
							CHANNELS 3 Zrotation Yrotation Xrotation
							JOINT Head
							{
								OFFSET 0.000000 7.643700 -2.377400
								CHANNELS 3 Zrotation Yrotation Xrotation
								End Site
								{
									OFFSET 0.000000 0.000000 0.000000
								}
							}
						}
					}
					JOINT LeftShoulder_virtual
					{
						OFFSET 0.000000 0.000000 0.000000
						CHANNELS 3 Zrotation Yrotation Xrotation
						JOINT LeftShoulder
						{
							OFFSET 4.392200 8.824978 0.174984
							CHANNELS 3 Zrotation Yrotation Xrotation
							JOINT LeftArm
							{
								OFFSET 8.771219 -2.981674 -0.026999
								CHANNELS 3 Zrotation Yrotation Xrotation
								JOINT LeftForeArm
								{
									OFFSET 8.512804 0.000000 -0.000000
									CHANNELS 3 Zrotation Yrotation Xrotation
									JOINT LeftHand
									{
										OFFSET 18.484802 0.000000 -0.000000
										CHANNELS 3 Zrotation Yrotation Xrotation
										End Site
										{
											OFFSET 0.000000 0.000000 0.000000
										}
									}
								}
							}
						}
					}
					JOINT RightShoulder_virtual
					{
						OFFSET 0.000000 0.000000 0.000000
						CHANNELS 3 Zrotation Yrotation Xrotation
						JOINT RightShoulder
						{
							OFFSET -4.392200 8.824993 0.141379
							CHANNELS 3 Zrotation Yrotation Xrotation
							JOINT RightArm
							{
								OFFSET -8.771282 -2.981682 -0.094208
								CHANNELS 3 Zrotation Yrotation Xrotation
								JOINT RightForeArm
								{
									OFFSET -8.494598 0.000000 0.000000
									CHANNELS 3 Zrotation Yrotation Xrotation
									JOINT RightHand
									{
										OFFSET -18.483803 0.000000 0.000001
										CHANNELS 3 Zrotation Yrotation Xrotation
										End Site
										{
											OFFSET 0.000000 0.000000 0.000000
										}
									}
								}
							}
						}
					}
				}
			}
		}
	}
}
MOTION
Frames: 13
Frame Time: 0.033333
1.377859 35.828674 9.867739 -179.850806 6.320178 -179.888290 -3.623984 -2.510865 10.611951 -14.941768 3.828497 -17.049843 15.912234 7.093431 23.331107 1.109644 -3.185431 3.368345 0.000000 0.000000 0.000000 0.978591 -0.234827 9.226864 3.098108 1.684406 -10.178971 -7.159877 0.031186 16.053347 5.666285 2.913675 2.876051 0.000000 0.000000 0.000000 0.526238 1.391725 -1.184169 -3.816828 1.697692 -8.012486 0.809681 -3.558262 3.045695 -0.035840 0.007857 0.027551 0.658485 -2.188534 5.632056 1.812305 1.398368 13.935686 0.000000 0.000000 0.000000 2.162772 -1.189393 2.961831 -10.201799 1.813861 -6.382021 -0.554399 8.112445 -36.202164 -0.465923 -41.394078 -2.018459 0.000000 0.000000 0.000000 -1.443441 -0.469859 2.258259 20.391359 -3.648513 -12.830206 6.875148 -7.899453 -52.739217 0.425635 29.883157 4.049878 0.000000 0.000000 0.000000 
1.360834 35.837296 9.899320 -179.842173 6.187979 -179.807626 -3.886298 -2.743099 10.442720 -14.778538 3.727945 -16.726860 15.940282 7.070550 23.388005 1.027313 -3.299989 3.432718 0.000000 0.000000 0.000000 0.926131 -0.361254 8.985491 3.156535 1.402862 -10.018148 -7.147456 -0.089430 16.056873 5.628154 2.723829 3.036857 0.000000 0.000000 0.000000 0.394822 1.279919 -1.345900 -3.747287 1.696001 -7.852745 0.808760 -3.523983 3.081484 -0.016342 0.013056 0.020943 0.613183 -2.062370 5.668207 1.817384 1.207500 13.950310 0.000000 0.000000 0.000000 2.156418 -1.142171 2.917700 -10.160919 1.710588 -6.447232 -0.441889 7.894940 -36.208100 -0.420075 -41.897033 -2.020650 0.000000 0.000000 0.000000 -1.510780 -0.410883 2.234379 20.328791 -3.537804 -12.819394 6.600144 -7.926531 -52.930568 0.504284 30.072319 4.107164 0.000000 0.000000 0.000000 
1.324443 35.844582 9.944553 -179.847501 5.983409 -179.759992 -3.956139 -3.071382 10.193622 -14.789545 3.742696 -16.506144 16.009899 7.176395 23.257310 1.057991 -3.303273 3.392059 0.000000 0.000000 0.000000 0.888442 -0.720803 8.674140 3.174214 1.519714 -9.824764 -7.226031 0.027457 15.934906 5.746963 2.626765 3.237252 0.000000 0.000000 0.000000 0.296960 0.938691 -1.509484 -3.596048 1.786864 -7.632728 0.791305 -3.478534 3.178323 0.004924 0.033085 0.027180 0.568408 -1.956418 5.770751 1.824939 1.002391 14.027904 0.000000 0.000000 0.000000 2.104489 -1.162270 2.874843 -10.261449 1.815057 -6.411608 -0.472604 7.711951 -36.171698 -0.276652 -42.986677 -2.024794 0.000000 0.000000 0.000000 -1.547877 -0.417282 2.314605 20.277503 -3.498743 -12.897732 6.193143 -7.867201 -53.094189 0.710976 30.114393 4.264844 0.000000 0.000000 0.000000 
1.284121 35.846226 10.000967 -179.821942 5.813022 -179.763571 -3.957657 -3.300569 10.053333 -14.878899 3.956344 -16.359060 16.065551 7.245856 23.074619 1.052169 -3.334154 3.397039 0.000000 0.000000 0.000000 0.870644 -0.990777 8.414069 3.190700 1.690842 -9.748100 -7.273379 0.315939 15.941983 5.826063 2.438815 3.322023 0.000000 0.000000 0.000000 0.255760 0.822884 -1.578896 -3.385798 1.874427 -7.462386 0.716072 -3.506085 3.230224 -0.029037 -0.018394 0.022378 0.492145 -1.930791 5.875923 1.804422 0.790518 14.152807 0.000000 0.000000 0.000000 2.026256 -1.144208 2.884730 -10.406672 2.145929 -6.313721 -0.838912 7.601398 -36.261119 0.016661 -44.253991 -2.111870 0.000000 0.000000 0.000000 -1.586537 -0.388156 2.372702 20.254907 -3.448024 -12.748294 5.622506 -7.976257 -53.206716 0.884235 30.027779 4.354158 0.000000 0.000000 0.000000 
1.246839 35.848690 10.053970 -179.823240 5.715527 -179.817297 -3.969278 -3.439454 10.034059 -14.947133 4.070701 -16.335709 16.116315 7.437888 22.981558 0.961044 -3.405165 3.430102 0.000000 0.000000 0.000000 0.881436 -1.204804 8.323922 3.143580 1.833946 -9.844802 -7.348032 0.476252 16.159097 5.961552 2.294882 3.359727 0.000000 0.000000 0.000000 0.241847 0.533106 -1.571754 -3.124623 2.154290 -7.337863 0.686540 -3.439630 3.242394 0.007676 0.039379 0.022710 0.346663 -1.858951 5.997788 1.742874 0.602477 14.275496 0.000000 0.000000 0.000000 1.874080 -1.166485 2.940761 -10.423229 2.469357 -6.589275 -1.550533 7.509897 -36.615326 0.172355 -45.522627 -1.983584 0.000000 0.000000 0.000000 -1.726447 -0.413347 2.402184 20.217124 -3.502257 -12.417402 5.086762 -8.021853 -53.415839 1.107234 29.819155 4.385022 0.000000 0.000000 0.000000 
1.216735 35.855927 10.129594 -179.792326 5.646965 -179.850424 -3.931420 -3.601915 10.049848 -15.011825 4.137945 -16.430990 16.182156 7.623682 22.914733 0.883139 -3.410880 3.537362 0.000000 0.000000 0.000000 0.963230 -1.399290 8.284913 3.011673 1.889375 -10.176198 -7.320933 0.622742 16.458061 6.148055 2.174406 3.422511 0.000000 0.000000 0.000000 0.281322 0.419321 -1.516223 -2.851617 2.362369 -7.209172 0.651908 -3.468671 3.253263 -0.075135 0.006468 0.033896 0.249789 -1.860610 6.108885 1.686399 0.309578 14.352319 0.000000 0.000000 0.000000 1.766794 -1.171491 3.006000 -10.146081 2.612604 -6.572900 -2.201129 7.473009 -37.327674 0.544379 -46.092121 -2.099963 0.000000 0.000000 0.000000 -1.790484 -0.428626 2.468202 20.158537 -3.492711 -12.119579 4.766193 -7.930174 -53.663137 1.303543 29.508357 4.294195 0.000000 0.000000 0.000000 
1.208146 35.873142 10.253383 -179.891569 5.665370 -179.808705 -3.999765 -3.804542 10.030613 -15.032536 4.179373 -16.626036 16.259609 7.936538 22.833696 0.751279 -3.399302 3.703441 0.000000 0.000000 0.000000 0.993421 -1.610138 8.189313 2.828684 1.896506 -10.710545 -7.217934 0.692218 16.868341 6.398473 2.130932 3.615453 0.000000 0.000000 0.000000 0.257326 0.145776 -1.503869 -2.658273 2.566796 -7.050788 0.541116 -3.500224 3.252686 -0.011242 -0.024901 0.044968 0.122358 -1.837351 6.256973 1.561943 0.302162 14.358596 0.000000 0.000000 0.000000 1.608959 -1.124457 3.033623 -9.575363 2.466969 -6.488164 -2.649097 7.488956 -37.928512 0.850366 -45.769197 -2.066660 0.000000 0.000000 0.000000 -1.887727 -0.372232 2.554216 19.864171 -3.332248 -11.694381 4.887588 -7.854116 -53.862424 1.430393 29.401823 4.092707 0.000000 0.000000 0.000000 
1.218714 35.902824 10.459805 -179.902552 5.890659 -179.826163 -3.962509 -3.866165 9.950047 -15.018203 4.191984 -16.712027 16.303421 8.343044 22.599838 0.594418 -3.337432 4.056922 0.000000 0.000000 0.000000 1.140560 -1.846949 7.959127 2.597805 1.723866 -11.322872 -7.070672 0.859133 17.385623 6.668072 2.097401 3.898663 0.000000 0.000000 0.000000 0.310341 -0.035224 -1.364478 -2.509943 2.797370 -6.814110 0.453787 -3.488326 3.213189 -0.008569 -0.011909 0.015921 0.039956 -1.640394 6.417138 1.460392 0.330347 14.234410 0.000000 0.000000 0.000000 1.466217 -1.107449 3.129150 -8.588270 1.873159 -6.348444 -3.046880 7.851083 -37.294534 1.048949 -44.877492 -1.838704 0.000000 0.000000 0.000000 -1.973783 -0.382919 2.688384 19.438153 -3.239654 -11.186523 5.562750 -7.891027 -54.232908 1.549628 29.605103 3.756281 0.000000 0.000000 0.000000 
1.261506 35.950092 10.726949 -179.926130 6.324468 -179.907811 -3.921283 -3.931945 9.740533 -14.923431 4.297036 -16.649114 16.284102 8.620589 22.092908 0.401553 -3.224846 4.523364 0.000000 0.000000 0.000000 1.311892 -2.097216 7.635215 2.377269 1.527446 -11.980093 -6.891447 0.830909 17.766661 6.974635 2.221204 4.491774 0.000000 0.000000 0.000000 0.325240 -0.115258 -1.221865 -2.386934 2.979586 -6.450512 0.392101 -3.479523 3.231248 -0.006574 0.000618 0.019451 -0.036058 -1.844457 6.497942 1.436212 0.159792 14.032998 0.000000 0.000000 0.000000 1.380456 -1.165203 3.191859 -7.391188 0.811434 -5.881758 -3.819476 8.556025 -34.168998 1.118458 -43.446645 -1.402797 0.000000 0.000000 0.000000 -2.008940 -0.423300 2.715323 18.796493 -3.157744 -10.563863 7.143213 -7.995163 -54.509407 1.526611 30.092833 3.209818 0.000000 0.000000 0.000000 
1.345048 36.015427 11.039402 -179.910352 7.086390 -179.905912 -3.830243 -3.856500 9.360482 -14.755290 4.681803 -16.419399 16.337898 9.271375 21.366812 -0.006931 -3.236466 5.231978 0.000000 0.000000 0.000000 1.472285 -2.083277 7.278956 2.304013 1.194992 -12.635508 -6.653468 0.900399 17.784240 7.119074 2.390448 5.447913 0.000000 0.000000 0.000000 0.328821 -0.034216 -1.121864 -2.259377 3.093090 -6.048440 0.341523 -3.513463 3.274638 -0.020064 0.001870 0.021197 -0.066138 -1.888354 6.631209 1.400058 0.163560 13.801689 0.000000 0.000000 0.000000 1.319830 -1.179367 3.327443 -6.459554 -0.468281 -5.248243 -5.528402 9.633044 -27.972768 0.970384 -41.924849 -0.657622 0.000000 0.000000 0.000000 -2.046254 -0.446908 2.825442 18.101536 -2.996045 -9.812454 9.567913 -8.190788 -54.243470 1.324117 30.693924 2.448068 0.000000 0.000000 0.000000 
1.464613 36.075325 11.382617 -179.873442 8.312076 179.978025 -3.723479 -3.527365 8.855558 -14.476895 5.230892 -15.975560 16.345015 9.841744 20.587578 -0.412623 -3.206348 5.860961 0.000000 0.000000 0.000000 1.694732 -1.861762 6.892581 2.303024 0.969275 -13.419269 -6.488771 0.838991 18.205547 7.165323 2.738130 6.435351 0.000000 0.000000 0.000000 0.315559 0.192221 -0.902338 -2.161260 3.151984 -5.589653 0.294657 -3.578837 3.359461 0.004592 0.004283 -0.016316 -0.106833 -1.910343 6.732918 1.399369 0.233529 13.467993 0.000000 0.000000 0.000000 1.249603 -1.169783 3.485988 -6.063529 -1.844645 -4.235402 -8.385067 10.964706 -19.275636 0.773148 -40.371325 0.163288 0.000000 0.000000 0.000000 -2.102560 -0.455316 2.926501 17.596558 -2.645132 -8.982408 12.746555 -8.274317 -53.053744 0.994975 31.100133 1.542780 0.000000 0.000000 0.000000 
1.634940 36.098675 11.772001 -179.999663 9.798017 179.951606 -3.680886 -3.009811 8.141879 -14.263144 6.114789 -15.607394 16.492327 10.042190 20.097212 -0.916503 -3.273062 6.299632 0.000000 0.000000 0.000000 1.761457 -1.414200 6.403459 2.426598 0.801416 -14.591166 -6.338605 0.725929 19.195663 7.052883 3.249693 7.133620 0.000000 0.000000 0.000000 0.020365 0.438920 -0.598778 -1.966763 3.160362 -5.209366 0.268961 -3.529049 3.439079 0.014910 -0.034245 -0.000094 -0.149408 -1.959247 6.751849 1.382113 0.375307 13.086535 0.000000 0.000000 0.000000 1.163342 -1.176611 3.633599 -6.363315 -3.289576 -3.239524 -12.425922 12.489406 -9.891851 0.526530 -38.921082 0.907452 0.000000 0.000000 0.000000 -2.194367 -0.490357 3.060042 17.461534 -2.071082 -8.131456 16.643376 -8.085649 -50.751618 0.609073 31.198771 0.590478 0.000000 0.000000 0.000000 
1.862637 36.054947 12.202738 179.974774 11.283198 179.928780 -3.452399 -2.563217 7.491601 -13.940507 6.602639 -15.435522 16.642470 10.341564 19.995003 -1.414390 -3.357439 6.328164 0.000000 0.000000 0.000000 1.898266 -0.996349 5.939938 2.874034 0.371720 -16.015540 -6.073079 0.631142 20.671533 6.864249 3.841245 7.608904 0.000000 0.000000 0.000000 -0.183617 0.790226 -0.093603 -1.777724 3.328200 -4.929603 0.207707 -3.745515 3.483954 0.020800 0.026898 -0.012014 -0.187328 -2.066517 6.702585 1.332772 0.536803 12.638930 0.000000 0.000000 0.000000 1.069481 -1.284482 3.735980 -7.347491 -4.722372 -2.251627 -17.333946 13.910851 -1.814356 0.305341 -37.994918 1.460830 0.000000 0.000000 0.000000 -2.256207 -0.601048 3.152680 17.848030 -1.297632 -7.202492 21.032862 -7.563839 -47.474152 0.291257 30.942195 -0.263176 0.000000 0.000000 0.000000 
